 <svg version="1.0" xmlns="http://www.w3.org/2000/svg"  width="116.000000pt" height="243.000000pt" viewBox="0 0 316.000000 443.000000"  preserveAspectRatio="xMidYMid meet">  <g transform="translate(0.000000,443.000000) scale(0.100000,-0.100000)" fill="#000000" stroke="none"> <path d="M743 4416 c-41 -19 -53 -43 -53 -111 0 -93 40 -181 183 -403 84 -132 120 -204 172 -347 18 -49 36 -83 38 -75 3 8 22 134 42 280 20 146 37 276 39 290 7 43 -14 140 -40 191 -54 109 -162 179 -283 186 -44 2 -77 -1 -98 -11z"></path> <path d="M1513 4081 c-98 -33 -172 -101 -213 -193 -18 -42 -114 -605 -108 -635 2 -8 22 12 46 47 77 109 160 197 275 293 205 172 307 298 307 381 0 100 -163 157 -307 107z"></path> <path d="M353 3906 c-132 -43 -176 -124 -115 -215 42 -62 148 -137 322 -225 171 -87 264 -147 365 -232 36 -31 68 -54 71 -52 6 6 -210 521 -241 573 -56 96 -163 157 -285 162 -45 2 -92 -3 -117 -11z"></path> <path d="M1125 2980 l-220 -37 1 -34 c0 -19 6 -124 12 -234 6 -110 14 -479 17 -820 5 -558 2 -681 -17 -777 -4 -18 137 -110 226 -147 153 -64 212 -75 411 -75 146 -1 192 3 245 17 269 76 455 262 532 532 19 67 23 104 22 225 0 172 -14 240 -81 380 -39 80 -58 107 -132 180 -137 135 -259 185 -456 183 -98 0 -227 -21 -296 -48 -14 -5 -15 29 -11 345 4 338 4 350 -14 349 -11 -1 -118 -18 -239 -39z"></path> <path d="M52 588 c-41 -8 -52 -13 -48 -25 3 -8 6 -124 6 -258 l0 -243 48 -23 c56 -28 154 -36 207 -19 52 17 101 64 121 115 24 65 16 161 -19 214 -38 57 -77 76 -159 75 l-68 -1 0 88 c0 100 7 94 -88 77z"></path> <path d="M2052 588 c-41 -8 -52 -13 -48 -25 3 -8 6 -124 6 -258 l0 -243 48 -23 c56 -28 154 -36 207 -19 52 17 101 64 121 115 24 65 16 161 -19 214 -38 57 -77 76 -159 75 l-68 -1 0 88 c0 100 7 94 -88 77z"></path> <path d="M555 424 c-80 -19 -106 -28 -102 -38 2 -6 10 -27 17 -47 l13 -35 59 15 c52 14 62 14 85 1 43 -24 41 -40 -5 -28 -77 19 -163 -23 -183 -92 -37 -124 82 -227 208 -179 22 8 30 7 38 -5 10 -13 18 -13 68 2 46 12 56 19 51 31 -17 41 -24 94 -24 186 0 115 -10 140 -62 167 -37 19 -125 31 -163 22z"></path> <path d="M1710 424 c-14 -3 -42 -10 -63 -15 -41 -11 -43 -17 -18 -82 10 -24 10 -25 55 -10 54 18 111 10 126 -16 9 -17 7 -18 -30 -10 -60 14 -123 -6 -161 -49 -29 -33 -31 -40 -27 -94 4 -52 9 -63 40 -95 31 -31 45 -37 91 -41 37 -3 63 1 84 12 29 15 31 14 36 -4 3 -11 11 -18 19 -16 7 3 33 10 56 16 39 10 43 14 37 33 -4 12 -10 84 -14 159 -7 148 -13 163 -73 194 -29 15 -119 25 -158 18z"></path> <path d="M2967 416 c-46 -17 -64 -32 -83 -67 -39 -76 3 -153 101 -184 41 -13 55 -21 53 -34 -5 -24 -44 -25 -88 -2 -42 22 -45 20 -73 -35 -19 -37 -14 -44 46 -69 45 -19 117 -19 161 -1 52 22 76 60 76 122 0 45 -4 57 -31 84 -17 17 -51 36 -76 43 -25 6 -48 18 -51 25 -9 24 20 31 57 15 20 -8 41 -17 47 -20 13 -5 54 56 54 80 0 37 -129 67 -193 43z"></path> <path d="M901 408 l-53 -10 6 -36 c3 -21 6 -106 6 -189 l0 -153 65 0 66 0 -3 114 c-3 102 -1 116 17 136 16 18 27 21 56 16 l36 -6 17 61 c10 33 15 63 12 67 -13 12 -96 4 -120 -12 -25 -16 -26 -16 -26 4 0 22 -1 22 -79 8z"></path> <path d="M1255 406 c-22 -7 -55 -20 -73 -30 -28 -15 -31 -20 -25 -44 4 -15 7 -91 7 -169 l-1 -143 66 0 66 0 -3 135 -3 135 26 10 c38 14 53 12 75 -10 18 -18 20 -33 20 -145 l0 -125 66 0 65 0 -3 159 -3 160 -29 30 c-17 17 -46 36 -65 41 -48 13 -137 11 -186 -4z"></path> <path d="M2440 260 c0 -118 3 -158 16 -181 34 -67 165 -89 287 -48 84 28 88 32 75 99 -5 30 -8 106 -6 168 l3 112 -65 0 -65 0 0 -137 0 -137 -28 -10 c-21 -8 -35 -7 -55 5 -27 15 -27 15 -30 147 l-3 132 -64 0 -65 0 0 -150z"></path> </g> </svg> 